<svg width="80" height="125" viewBox="0 0 80 125" fill="none" xmlns="http://www.w3.org/2000/svg">
<path d="M0 107H27V115C27 120.523 22.5228 125 17 125H10C4.47715 125 0 120.523 0 115V107Z" fill="#337CCF"/>
<path d="M12 53C12 61.8366 19.1634 69 28 69H60C71.0457 69 80 60.0457 80 49V20C80 8.9543 71.0457 0 60 0H28C19.1634 0 12 7.16344 12 16V53Z" fill="#337CCF"/>
<path d="M28 47C28 52.5228 32.4772 57 38 57H48C59.0457 57 68 48.0457 68 37V32C68 20.9543 59.0457 12 48 12H38C32.4772 12 28 16.4772 28 22V47Z" fill="white"/>
<path d="M0 10C0 4.47716 4.47715 0 10 0H27V100H0V10Z" fill="#337CCF"/>
</svg>
